<svg xmlns="http://www.w3.org/2000/svg" width="866.522" height="637.056" viewBox="0 0 866.522 637.056">
  <g id="secured" transform="translate(0 0)">
    <path id="Path_1" data-name="Path 1" d="M971.738,768.528v-72.34S999.93,747.474,971.738,768.528Z" transform="translate(-166.738 -131.472)" fill="#f1f1f1"/>
    <path id="Path_2" data-name="Path 2" d="M973.48,768.515l-53.29-48.921S977.035,733.51,973.48,768.515Z" transform="translate(-166.738 -131.472)" fill="#f1f1f1"/>
    <path id="Path_3" data-name="Path 3" d="M743.266,577.442a9.1,9.1,0,0,1,9.851-9.872l9.607-18.431,12.624,3.106-13.932,25.838a9.145,9.145,0,0,1-18.15-.641Z" transform="translate(-166.738 -131.472)" fill="#ffb7b7"/>
    <path id="Path_4" data-name="Path 4" d="M633.871,625.527H623.218l-5.068-41.089h15.723Z" fill="#ffb7b7"/>
    <path id="Path_5" data-name="Path 5" d="M803.326,767.325H768.977v-.434a13.37,13.37,0,0,1,13.369-13.369h20.981Z" transform="translate(-166.738 -131.472)" fill="#2f2e41"/>
    <path id="Path_6" data-name="Path 6" d="M719.549,617.569l-10.278,2.8-15.7-38.308,15.169-4.136Z" fill="#ffb7b7"/>
    <path id="Path_7" data-name="Path 7" d="M891.625,758.288l-33.139,9.037-.114-.419a13.37,13.37,0,0,1,9.381-16.416h0l20.24-5.52Z" transform="translate(-166.738 -131.472)" fill="#2f2e41"/>
    <path id="Path_8" data-name="Path 8" d="M614.423,448.033l-5.314,80.694,11.415,90.534,18.7-5.707.788-80.891,14.957-46.645L699.25,610.6l20.271-7.479-16.729-80.891-9.447-75.97Z" fill="#2f2e41"/>
    <path id="Path_9" data-name="Path 9" d="M832.823,437.806l-31.486,4.643-11.343,11.218-3.522,40.307,2.187,35.7-9.119,62.959s22.93-12.729,40.7,3.205,42.635,2.816,43.147-7.784Z" transform="translate(-166.738 -131.472)" fill="#cbcbcb"/>
    <path id="Path_10" data-name="Path 10" d="M816.834,488.357v-.045l15.641-50.984.2-.013c1.113-.072,27.337-1.618,33.2,11.33l.028.062-1.782,52.983,2.454,82.979-48.5,10.5-.353.077Z" transform="translate(-166.738 -131.472)" fill="#2f2e41"/>
    <path id="Path_11" data-name="Path 11" d="M799.5,484.833l2.869-43.221c-20.407,1.269-20.1,15.738-20.076,16.369l-.223,64.65-4.087,69.164,14.86-1.114Z" transform="translate(-166.738 -131.472)" fill="#2f2e41"/>
    <path id="Path_12" data-name="Path 12" d="M753.485,563.477,771.6,521.43l12.646-23.221,6.6,41.889-22.922,34.383Z" transform="translate(-166.738 -131.472)" fill="#2f2e41"/>
    <path id="Path_13" data-name="Path 13" d="M828.36,548.006a9.1,9.1,0,0,1,12.325-6.526L855.3,526.7l11.146,6.692-20.934,20.578a9.145,9.145,0,0,1-17.154-5.967Z" transform="translate(-166.738 -131.472)" fill="#ffb7b7"/>
    <path id="Path_14" data-name="Path 14" d="M840.651,536.085l29.8-32.692-19.726-28.149,2.03-13.762,11.627-14.362.227.293c1.239,1.6,30.362,39.439,31.2,53.763.839,14.376-41.021,50.742-42.8,52.282l-.248.214Z" transform="translate(-166.738 -131.472)" fill="#2f2e41"/>
    <circle id="Ellipse_1" data-name="Ellipse 1" cx="21.181" cy="21.181" r="21.181" transform="translate(626.735 260.431)" fill="#ffb7b7"/>
    <path id="Path_15" data-name="Path 15" d="M834.576,396.15l1.027-2.067-5.167-2.567s-5.7-9.274-16.014-6.668-14.955,4.166-14.955,4.166l-5.154,2.593,2.587,2.574-4.64,1.56,3.1,1.54-3.607,2.073,1.942,10.628s3.225-8.061,9.425-4.981,17.541-1.592,17.541-1.592l9.853,19.069s2.033-6.685,5.657-4.9C836.171,417.577,845.43,402.831,834.576,396.15Z" transform="translate(-166.738 -131.472)" fill="#2f2e41"/>
    <path id="Path_16" data-name="Path 16" d="M594.907,516.07,272.8,604.9,166.738,220.3l322.1-88.831Z" transform="translate(-166.738 -131.472)" fill="#fff"/>
    <path id="Path_17" data-name="Path 17" d="M594.907,516.07,272.8,604.9,166.738,220.3l322.1-88.831ZM276.92,597.651l310.738-85.7L484.726,138.721l-310.738,85.7Z" transform="translate(-166.738 -131.472)" fill="#f1f1f1"/>
    <path id="Path_18" data-name="Path 18" d="M418.744,303.765,338,326.032a4.46,4.46,0,0,1-5.479-3.11l-22.267-80.741a4.46,4.46,0,0,1,3.11-5.479l80.741-22.267a4.46,4.46,0,0,1,5.479,3.11l22.267,80.741A4.46,4.46,0,0,1,418.744,303.765Zm-104.9-65.345a2.676,2.676,0,0,0-1.866,3.288l22.267,80.741a2.676,2.676,0,0,0,3.288,1.866l80.741-22.267a2.676,2.676,0,0,0,1.866-3.288L397.87,218.019a2.676,2.676,0,0,0-3.288-1.866Z" transform="translate(-166.738 -131.472)" fill="#e5e5e5"/>
    <path id="Path_19" data-name="Path 19" d="M398.277,320.039l-80.741,22.267a4.014,4.014,0,0,1-4.931-2.8l-22.268-80.741a4.014,4.014,0,0,1,2.8-4.931l80.741-22.267a4.014,4.014,0,0,1,4.931,2.8l22.267,80.741a4.014,4.014,0,0,1-2.8,4.931Z" transform="translate(-166.738 -131.472)" fill="#ff5b01"/>
    <rect id="Rectangle_1" data-name="Rectangle 1" width="233.728" height="9.032" transform="translate(99.755 261.729) rotate(-15.418)" fill="#f1f1f1"/>
    <rect id="Rectangle_2" data-name="Rectangle 2" width="233.728" height="9.032" transform="translate(106.016 284.431) rotate(-15.418)" fill="#f1f1f1"/>
    <rect id="Rectangle_3" data-name="Rectangle 3" width="233.728" height="9.032" transform="translate(112.277 307.132) rotate(-15.418)" fill="#f1f1f1"/>
    <rect id="Rectangle_4" data-name="Rectangle 4" width="233.728" height="9.032" transform="translate(123.296 347.088) rotate(-15.418)" fill="#f1f1f1"/>
    <rect id="Rectangle_5" data-name="Rectangle 5" width="233.728" height="9.032" transform="translate(129.557 369.79) rotate(-15.418)" fill="#f1f1f1"/>
    <rect id="Rectangle_6" data-name="Rectangle 6" width="233.728" height="9.032" transform="translate(135.818 392.492) rotate(-15.418)" fill="#f1f1f1"/>
    <path id="Path_20" data-name="Path 20" d="M698.014,603.616H363.887V204.661H698.014Z" transform="translate(-166.738 -131.472)" fill="#fff"/>
    <path id="Path_21" data-name="Path 21" d="M698.014,603.616H363.887V204.661H698.014Zm-328.233-5.895H692.12V210.555H369.782Z" transform="translate(-166.738 -131.472)" fill="#e5e5e5"/>
    <rect id="Rectangle_7" data-name="Rectangle 7" width="191.034" height="9.032" transform="translate(279.408 244.695)" fill="#ff5b01"/>
    <rect id="Rectangle_8" data-name="Rectangle 8" width="191.034" height="9.032" transform="translate(279.408 268.178)" fill="#ff5b01"/>
    <rect id="Rectangle_9" data-name="Rectangle 9" width="191.034" height="9.032" transform="translate(279.408 291.661)" fill="#ff5b01"/>
    <circle id="Ellipse_2" data-name="Ellipse 2" cx="5.895" cy="5.895" r="5.895" transform="translate(257.982 244.639)" fill="#ff5b01"/>
    <rect id="Rectangle_10" data-name="Rectangle 10" width="191.034" height="9.032" transform="translate(279.408 143.505)" fill="#e5e5e5"/>
    <rect id="Rectangle_11" data-name="Rectangle 11" width="191.034" height="9.032" transform="translate(279.408 166.989)" fill="#e5e5e5"/>
    <rect id="Rectangle_12" data-name="Rectangle 12" width="191.034" height="9.032" transform="translate(279.408 190.472)" fill="#e5e5e5"/>
    <circle id="Ellipse_3" data-name="Ellipse 3" cx="5.895" cy="5.895" r="5.895" transform="translate(257.982 142.467)" fill="#e5e5e5"/>
    <rect id="Rectangle_13" data-name="Rectangle 13" width="191.034" height="9.032" transform="translate(279.408 346.867)" fill="#e5e5e5"/>
    <rect id="Rectangle_14" data-name="Rectangle 14" width="191.034" height="9.032" transform="translate(279.408 370.35)" fill="#e5e5e5"/>
    <rect id="Rectangle_15" data-name="Rectangle 15" width="191.034" height="9.032" transform="translate(279.408 393.833)" fill="#e5e5e5"/>
    <circle id="Ellipse_4" data-name="Ellipse 4" cx="5.895" cy="5.895" r="5.895" transform="translate(257.982 345.828)" fill="#e5e5e5"/>
    <path id="Path_25" data-name="Path 25" d="M68.293,0A68.293,68.293,0,1,1,0,68.293,68.293,68.293,0,0,1,68.293,0Z" transform="translate(447.384 369.912)" fill="#ff5b01"/>
    <path id="Path_22" data-name="Path 22" d="M701.336,565.32V552.253a18.921,18.921,0,0,0-37.842,0V565.32a9.838,9.838,0,0,0-9.4,9.823v30.879h56.633V575.144A9.838,9.838,0,0,0,701.336,565.32Zm-18.921-25.326a12.273,12.273,0,0,1,12.258,12.259V565.3H670.157V552.253a12.273,12.273,0,0,1,12.258-12.259Z" transform="translate(-166.738 -131.472)" fill="#fff"/>
    <path id="Path_23" data-name="Path 23" d="M687.506,580.569a5.091,5.091,0,1,0-7.954,4.207v11.065h5.726V584.776a5.084,5.084,0,0,0,2.228-4.207Z" transform="translate(-166.738 -131.472)" fill="#ff5b01"/>
    <path id="Path_24" data-name="Path 24" d="M1032.26,768.122h-381a1,1,0,0,1,0-2h381a1,1,0,0,1,0,2Z" transform="translate(-166.738 -131.472)" fill="#cbcbcb"/>
  </g>
</svg>
